<svg id="Layer_1" data-name="Layer 1" xmlns="http://www.w3.org/2000/svg" viewBox="0 0 595.28 841.89"><defs><style>.cls-1{fill:none;stroke:#000;stroke-linecap:round;stroke-linejoin:round;}</style></defs><title>Brace Fabric</title><path class="cls-1" d="M132,733.64c22.87,9.44,56.3,21.29,93.25,28.16,50,9.3,129.49,11.63,169.3,7.31,50.52-5.48,88-19.41,101.33-26.12.17-1.21,4.55-56.18,4.62-56.69.62-12.78,1.28-22.74,1.94-35.76,2.14-41.7,3.34-74.82,4.22-115,1.29-59.18.87-102.64-5.17-136.45-4.77-26.72-13-43.33-25.47-63.86-13.69-22.51-29.74-46.3-38-68-4.42-14-7.31-26.1-9.85-36.75-3.76-15.71-7-29.27-13.7-42.54-12.42-24.61-33.39-40.75-74.52-61.62-27.74-14.08-56.27-28.14-89.07-39.52-35.47-12.32-66.66-20.54-94.29-25.23-.68,3.63-1,11.48-.56,22.39.72,13.07,2.69,28.72,5.47,36.67,43,40.74,28,126.88,5,164.16-4.94,8.61-9,14.29-13.68,19-5.74,5.81-12.16,8.89-19.31,11.9-1.31,19.22-3.44,73-2.6,107.81,1.48,61.55,4.85,153.19,4.8,194.41C135.61,681.35,132,733.64,132,733.64Z"/></svg>