<svg id="Layer_1" data-name="Layer 1" xmlns="http://www.w3.org/2000/svg" viewBox="0 0 595.28 841.89"><defs><style>.cls-1{fill:none;stroke:#000;stroke-linecap:round;stroke-linejoin:round;}</style></defs><title>Brace Fabric</title><path class="cls-1" d="M74.68,274.79c.43,61.24,5.45,61.66,28.68,72.43,25.18,11.68,49.4,21.67,45.76,153.54-2.35,85.12-10.43,234.78-10.46,236.84,1.86.12,391,20.2,391,20.2s1.93-47-1.57-112.61C523,548.79,512.9,414,512.51,325.25c-26.9-38.44-16.94-104.75-5.67-140.36,5.58-15.8,13.09-40.72,33.23-50.24.93-17.22-1.24-58.73-1.22-60.15C405.94,79.19,133.27,181.13,100,209.9,78.69,228.27,74.42,238,74.68,274.79Z"/></svg>